<svg width="194" height="284" viewBox="0 0 194 284" fill="none" xmlns="http://www.w3.org/2000/svg">
<g clip-path="url(#clip0_16_55)">
<path d="M0.5 0.5H0.886313H1.32833H1.7696H2.21012H2.64989H3.08892H3.52721H3.96475H4.40157H4.83765H5.273H5.70763H6.14153H6.57471H7.00718H7.43893H7.86997H8.3003H8.72993H9.15885H9.58708H10.0146H10.4414H10.8676H11.293H11.7178H12.1419H12.5653H12.9881H13.4101H13.8315H14.2522H14.6723H15.0917H15.5105H15.9285H16.346H16.7628H17.1789H17.5944H18.0093H18.4235H18.8371H19.2501H19.6624H20.0741H20.4852H20.8957H21.3055H21.7148H22.1234H22.5314H22.9388H23.3456H23.7519H24.1575H24.5625H24.9669H25.3708H25.7741H26.1768H26.5789H26.9804H27.3814H27.7818H28.1816H28.5809H28.9796H29.3778H29.7754H30.1724H30.5689H30.9649H31.3603H31.7552H32.1495H32.5433H32.9366H33.3294H33.7216H34.1133H34.5045H34.8952H35.2853H35.675H36.0642H36.4528H36.841H37.2286H37.6158H38.0024H38.3886H38.7743H39.1595H39.5442H39.9285H40.3123H40.6956H41.0784H41.4608H41.8427H42.2242H42.6052H42.9858H43.3659H43.7455H44.1247H44.5035H44.8818H45.2597H45.6372H46.0143H46.3909H46.7671H47.1428H47.5182H47.8931H48.2677H48.6418H49.0155H49.3888H49.7618H50.1343H50.5064H50.8782H51.2495H51.6205H51.9911H52.3613H52.7311H53.1006H53.4697H53.8384H54.2068H54.5748H54.9424H55.3097H55.6767H56.0433H56.4095H56.7754H57.141H57.5062H57.8711H58.2357H58.5999H58.9639H59.3275H59.6907H60.0537H60.4164H60.7787H61.1407H61.5025H61.8639H62.225H62.5859H62.9464H63.3067H63.6666H64.0263H64.3857H64.7449H65.1037H65.4623H65.8206H66.1787H66.5365H66.894H67.2513H67.6083H67.9651H68.3216H68.6779H69.034H69.3898H69.7453H70.1007H70.4558H70.8107H71.1653H71.5198H71.874H72.228H72.5818H72.9354H73.2888H73.6419H73.9949H74.3477H74.7003H75.0527H75.4049H75.7569H76.1088H76.4605H76.812H77.1633H77.5144H77.8654H78.2162H78.5669H78.9174H79.2677H79.6179H79.968H80.3179H80.6676H81.0173H81.3667H81.7161H82.0653H82.4144H82.7634H83.1122H83.4609H83.8095H84.158H84.5064H84.8547H85.2029H85.5509H85.8989H86.2468H86.5946H86.9423H87.2899H87.6374H87.9848H88.3322H88.6795H89.0267H89.3739H89.721H90.068H90.415H90.7619H91.1087H91.4556H91.8023H92.149H92.4957H92.8423H93.1889H93.5355H93.882H94.2285H94.575H94.9215H95.2679H95.6144H95.9608H96.3072H96.6536H97H97.3464H97.6928H98.0392H98.3856H98.7321H99.0785H99.425H99.7715H100.118H100.465H100.811H101.158H101.504H101.851H102.198H102.544H102.891H103.238H103.585H103.932H104.279H104.626H104.973H105.32H105.668H106.015H106.363H106.71H107.058H107.405H107.753H108.101H108.449H108.797H109.145H109.494H109.842H110.19H110.539H110.888H111.237H111.586H111.935H112.284H112.633H112.983H113.332H113.682H114.032H114.382H114.732H115.083H115.433H115.784H116.135H116.486H116.837H117.188H117.54H117.891H118.243H118.595H118.947H119.3H119.652H120.005H120.358H120.711H121.065H121.418H121.772H122.126H122.48H122.835H123.189H123.544H123.899H124.255H124.61H124.966H125.322H125.678H126.035H126.392H126.749H127.106H127.464H127.821H128.179H128.538H128.896H129.255H129.614H129.974H130.333H130.693H131.054H131.414H131.775H132.136H132.498H132.859H133.221H133.584H133.946H134.309H134.673H135.036H135.4H135.764H136.129H136.494H136.859H137.225H137.59H137.957H138.323H138.69H139.058H139.425H139.793H140.162H140.53H140.899H141.269H141.639H142.009H142.38H142.75H143.122H143.494H143.866H144.238H144.611H144.984H145.358H145.732H146.107H146.482H146.857H147.233H147.609H147.986H148.363H148.74H149.118H149.496H149.875H150.254H150.634H151.014H151.395H151.776H152.157H152.539H152.922H153.304H153.688H154.072H154.456H154.84H155.226H155.611H155.998H156.384H156.771H157.159H157.547H157.936H158.325H158.715H159.105H159.495H159.887H160.278H160.671H161.063H161.457H161.85H162.245H162.64H163.035H163.431H163.828H164.225H164.622H165.02H165.419H165.818H166.218H166.619H167.02H167.421H167.823H168.226H168.629H169.033H169.437H169.843H170.248H170.654H171.061H171.469H171.877H172.285H172.694H173.104H173.515H173.926H174.338H174.75H175.163H175.576H175.991H176.406H176.821H177.237H177.654H178.071H178.49H178.908H179.328H179.748H180.168H180.59H181.012H181.435H181.858H182.282H182.707H183.132H183.559H183.985H184.413H184.841H185.27H185.7H186.13H186.561H186.993H187.425H187.858H188.292H188.727H189.162H189.598H190.035H190.473H190.911H191.35H191.79H192.23H192.672H193.114H193.5V283.5H0.5V0.5Z" stroke="white"/>
<path d="M136 0C136 5.12155 134.991 10.193 133.031 14.9247C131.071 19.6564 128.199 23.9557 124.577 27.5772C120.956 31.1986 116.656 34.0714 111.925 36.0313C107.193 37.9912 102.122 39 97 39C91.8784 39 86.807 37.9912 82.0753 36.0313C77.3436 34.0714 73.0443 31.1986 69.4228 27.5772C65.8013 23.9557 62.9286 19.6563 60.9687 14.9247C59.0088 10.193 58 5.12155 58 -3.8147e-06H59.042C59.042 4.98471 60.0238 9.92061 61.9314 14.5259C63.839 19.1312 66.6349 23.3156 70.1597 26.8403C73.6844 30.3651 77.8688 33.161 82.4741 35.0686C87.0794 36.9762 92.0153 37.958 97 37.958C101.985 37.958 106.921 36.9762 111.526 35.0686C116.131 33.161 120.316 30.3651 123.84 26.8403C127.365 23.3156 130.161 19.1312 132.069 14.5259C133.976 9.92062 134.958 4.98471 134.958 0H136Z" fill="white"/>
<path d="M59 0H135L134.945 1H59.0469L59 0Z" fill="#000301"/>
<path d="M17.1 64H19.1V76.26H26.68V78H17.1V64ZM32.6136 67.3C34.0803 67.3 35.2003 67.66 35.9736 68.38C36.7603 69.1 37.1536 70.1733 37.1536 71.6V78H35.3336V76.6C35.0136 77.0933 34.5536 77.4733 33.9536 77.74C33.3669 77.9933 32.6669 78.12 31.8536 78.12C30.6669 78.12 29.7136 77.8333 28.9936 77.26C28.2869 76.6867 27.9336 75.9333 27.9336 75C27.9336 74.0667 28.2736 73.32 28.9536 72.76C29.6336 72.1867 30.7136 71.9 32.1936 71.9H35.2336V71.52C35.2336 70.6933 34.9936 70.06 34.5136 69.62C34.0336 69.18 33.3269 68.96 32.3936 68.96C31.7669 68.96 31.1536 69.0667 30.5536 69.28C29.9536 69.48 29.4469 69.7533 29.0336 70.1L28.2336 68.66C28.7803 68.22 29.4336 67.8867 30.1936 67.66C30.9536 67.42 31.7603 67.3 32.6136 67.3ZM32.1736 76.64C32.9069 76.64 33.5403 76.48 34.0736 76.16C34.6069 75.8267 34.9936 75.36 35.2336 74.76V73.28H32.2736C30.6469 73.28 29.8336 73.8267 29.8336 74.92C29.8336 75.4533 30.0403 75.8733 30.4536 76.18C30.8669 76.4867 31.4403 76.64 32.1736 76.64ZM46.3667 67.3C47.7134 67.3 48.7801 67.6933 49.5667 68.48C50.3667 69.2533 50.7667 70.3933 50.7667 71.9V78H48.8467V72.12C48.8467 71.0933 48.6001 70.32 48.1067 69.8C47.6134 69.28 46.9067 69.02 45.9867 69.02C44.9467 69.02 44.1267 69.3267 43.5267 69.94C42.9267 70.54 42.6267 71.4067 42.6267 72.54V78H40.7067V67.4H42.5467V69C42.9334 68.4533 43.4534 68.0333 44.1067 67.74C44.7734 67.4467 45.5267 67.3 46.3667 67.3ZM64.3786 63.16V78H62.5386V76.32C62.1119 76.9067 61.5719 77.3533 60.9186 77.66C60.2653 77.9667 59.5453 78.12 58.7586 78.12C57.7319 78.12 56.8119 77.8933 55.9986 77.44C55.1853 76.9867 54.5453 76.3533 54.0786 75.54C53.6253 74.7133 53.3986 73.7667 53.3986 72.7C53.3986 71.6333 53.6253 70.6933 54.0786 69.88C54.5453 69.0667 55.1853 68.4333 55.9986 67.98C56.8119 67.5267 57.7319 67.3 58.7586 67.3C59.5186 67.3 60.2186 67.4467 60.8586 67.74C61.4986 68.02 62.0319 68.44 62.4586 69V63.16H64.3786ZM58.9186 76.44C59.5853 76.44 60.1919 76.2867 60.7386 75.98C61.2853 75.66 61.7119 75.22 62.0186 74.66C62.3253 74.0867 62.4786 73.4333 62.4786 72.7C62.4786 71.9667 62.3253 71.32 62.0186 70.76C61.7119 70.1867 61.2853 69.7467 60.7386 69.44C60.1919 69.1333 59.5853 68.98 58.9186 68.98C58.2386 68.98 57.6253 69.1333 57.0786 69.44C56.5453 69.7467 56.1186 70.1867 55.7986 70.76C55.4919 71.32 55.3386 71.9667 55.3386 72.7C55.3386 73.4333 55.4919 74.0867 55.7986 74.66C56.1186 75.22 56.5453 75.66 57.0786 75.98C57.6253 76.2867 58.2386 76.44 58.9186 76.44ZM68.0114 67.4H69.9314V78H68.0114V67.4ZM68.9714 65.36C68.5981 65.36 68.2847 65.24 68.0314 65C67.7914 64.76 67.6714 64.4667 67.6714 64.12C67.6714 63.7733 67.7914 63.48 68.0314 63.24C68.2847 62.9867 68.5981 62.86 68.9714 62.86C69.3447 62.86 69.6514 62.98 69.8914 63.22C70.1447 63.4467 70.2714 63.7333 70.2714 64.08C70.2714 64.44 70.1447 64.7467 69.8914 65C69.6514 65.24 69.3447 65.36 68.9714 65.36ZM79.2573 67.3C80.604 67.3 81.6707 67.6933 82.4573 68.48C83.2573 69.2533 83.6573 70.3933 83.6573 71.9V78H81.7373V72.12C81.7373 71.0933 81.4907 70.32 80.9973 69.8C80.504 69.28 79.7973 69.02 78.8773 69.02C77.8373 69.02 77.0173 69.3267 76.4173 69.94C75.8173 70.54 75.5173 71.4067 75.5173 72.54V78H73.5973V67.4H75.4373V69C75.824 68.4533 76.344 68.0333 76.9973 67.74C77.664 67.4467 78.4173 67.3 79.2573 67.3ZM97.4092 67.4V76.56C97.4092 78.4133 96.9492 79.78 96.0292 80.66C95.1092 81.5533 93.7359 82 91.9092 82C90.9092 82 89.9559 81.86 89.0492 81.58C88.1426 81.3133 87.4092 80.9267 86.8492 80.42L87.7692 78.94C88.2626 79.3667 88.8692 79.7 89.5892 79.94C90.3226 80.1933 91.0759 80.32 91.8492 80.32C93.0892 80.32 94.0026 80.0267 94.5892 79.44C95.1892 78.8533 95.4892 77.96 95.4892 76.76V75.92C95.0359 76.4667 94.4759 76.88 93.8092 77.16C93.1559 77.4267 92.4426 77.56 91.6692 77.56C90.6559 77.56 89.7359 77.3467 88.9092 76.92C88.0959 76.48 87.4559 75.8733 86.9892 75.1C86.5226 74.3133 86.2892 73.42 86.2892 72.42C86.2892 71.42 86.5226 70.5333 86.9892 69.76C87.4559 68.9733 88.0959 68.3667 88.9092 67.94C89.7359 67.5133 90.6559 67.3 91.6692 67.3C92.4692 67.3 93.2092 67.4467 93.8892 67.74C94.5826 68.0333 95.1492 68.4667 95.5892 69.04V67.4H97.4092ZM91.8892 75.88C92.5826 75.88 93.2026 75.7333 93.7492 75.44C94.3092 75.1467 94.7426 74.74 95.0492 74.22C95.3692 73.6867 95.5292 73.0867 95.5292 72.42C95.5292 71.3933 95.1892 70.5667 94.5092 69.94C93.8292 69.3 92.9559 68.98 91.8892 68.98C90.8092 68.98 89.9292 69.3 89.2492 69.94C88.5692 70.5667 88.2292 71.3933 88.2292 72.42C88.2292 73.0867 88.3826 73.6867 88.6892 74.22C89.0092 74.74 89.4426 75.1467 89.9892 75.44C90.5492 75.7333 91.1826 75.88 91.8892 75.88ZM112.189 64C114.002 64 115.429 64.4333 116.469 65.3C117.509 66.1667 118.029 67.36 118.029 68.88C118.029 70.4 117.509 71.5933 116.469 72.46C115.429 73.3267 114.002 73.76 112.189 73.76H108.729V78H106.729V64H112.189ZM112.129 72.02C113.396 72.02 114.362 71.7533 115.029 71.22C115.696 70.6733 116.029 69.8933 116.029 68.88C116.029 67.8667 115.696 67.0933 115.029 66.56C114.362 66.0133 113.396 65.74 112.129 65.74H108.729V72.02H112.129ZM124.45 67.3C125.916 67.3 127.036 67.66 127.81 68.38C128.596 69.1 128.99 70.1733 128.99 71.6V78H127.17V76.6C126.85 77.0933 126.39 77.4733 125.79 77.74C125.203 77.9933 124.503 78.12 123.69 78.12C122.503 78.12 121.55 77.8333 120.83 77.26C120.123 76.6867 119.77 75.9333 119.77 75C119.77 74.0667 120.11 73.32 120.79 72.76C121.47 72.1867 122.55 71.9 124.03 71.9H127.07V71.52C127.07 70.6933 126.83 70.06 126.35 69.62C125.87 69.18 125.163 68.96 124.23 68.96C123.603 68.96 122.99 69.0667 122.39 69.28C121.79 69.48 121.283 69.7533 120.87 70.1L120.07 68.66C120.616 68.22 121.27 67.8867 122.03 67.66C122.79 67.42 123.596 67.3 124.45 67.3ZM124.01 76.64C124.743 76.64 125.376 76.48 125.91 76.16C126.443 75.8267 126.83 75.36 127.07 74.76V73.28H124.11C122.483 73.28 121.67 73.8267 121.67 74.92C121.67 75.4533 121.876 75.8733 122.29 76.18C122.703 76.4867 123.276 76.64 124.01 76.64ZM142.741 67.4V76.56C142.741 78.4133 142.281 79.78 141.361 80.66C140.441 81.5533 139.068 82 137.241 82C136.241 82 135.288 81.86 134.381 81.58C133.475 81.3133 132.741 80.9267 132.181 80.42L133.101 78.94C133.595 79.3667 134.201 79.7 134.921 79.94C135.655 80.1933 136.408 80.32 137.181 80.32C138.421 80.32 139.335 80.0267 139.921 79.44C140.521 78.8533 140.821 77.96 140.821 76.76V75.92C140.368 76.4667 139.808 76.88 139.141 77.16C138.488 77.4267 137.775 77.56 137.001 77.56C135.988 77.56 135.068 77.3467 134.241 76.92C133.428 76.48 132.788 75.8733 132.321 75.1C131.855 74.3133 131.621 73.42 131.621 72.42C131.621 71.42 131.855 70.5333 132.321 69.76C132.788 68.9733 133.428 68.3667 134.241 67.94C135.068 67.5133 135.988 67.3 137.001 67.3C137.801 67.3 138.541 67.4467 139.221 67.74C139.915 68.0333 140.481 68.4667 140.921 69.04V67.4H142.741ZM137.221 75.88C137.915 75.88 138.535 75.7333 139.081 75.44C139.641 75.1467 140.075 74.74 140.381 74.22C140.701 73.6867 140.861 73.0867 140.861 72.42C140.861 71.3933 140.521 70.5667 139.841 69.94C139.161 69.3 138.288 68.98 137.221 68.98C136.141 68.98 135.261 69.3 134.581 69.94C133.901 70.5667 133.561 71.3933 133.561 72.42C133.561 73.0867 133.715 73.6867 134.021 74.22C134.341 74.74 134.775 75.1467 135.321 75.44C135.881 75.7333 136.515 75.88 137.221 75.88ZM155.99 72.76C155.99 72.9067 155.977 73.1 155.95 73.34H147.35C147.47 74.2733 147.877 75.0267 148.57 75.6C149.277 76.16 150.15 76.44 151.19 76.44C152.457 76.44 153.477 76.0133 154.25 75.16L155.31 76.4C154.83 76.96 154.23 77.3867 153.51 77.68C152.803 77.9733 152.01 78.12 151.13 78.12C150.01 78.12 149.017 77.8933 148.15 77.44C147.283 76.9733 146.61 76.3267 146.13 75.5C145.663 74.6733 145.43 73.74 145.43 72.7C145.43 71.6733 145.657 70.7467 146.11 69.92C146.577 69.0933 147.21 68.4533 148.01 68C148.823 67.5333 149.737 67.3 150.75 67.3C151.763 67.3 152.663 67.5333 153.45 68C154.25 68.4533 154.87 69.0933 155.31 69.92C155.763 70.7467 155.99 71.6933 155.99 72.76ZM150.75 68.92C149.83 68.92 149.057 69.2 148.43 69.76C147.817 70.32 147.457 71.0533 147.35 71.96H154.15C154.043 71.0667 153.677 70.34 153.05 69.78C152.437 69.2067 151.67 68.92 150.75 68.92Z" fill="white"/>
<path d="M21.36 231.2V248H18.984V233.288H15.192V231.2H21.36ZM29.8348 237.896C32.2348 237.896 33.9948 238.352 35.1148 239.264C36.2508 240.16 36.8188 241.392 36.8188 242.96C36.8188 243.952 36.5788 244.848 36.0988 245.648C35.6348 246.432 34.9228 247.056 33.9628 247.52C33.0188 247.968 31.8508 248.192 30.4588 248.192C29.2748 248.192 28.1308 248.016 27.0268 247.664C25.9228 247.296 25.0108 246.792 24.2908 246.152L25.3948 244.256C25.9708 244.8 26.7068 245.24 27.6028 245.576C28.4988 245.896 29.4428 246.056 30.4348 246.056C31.6988 246.056 32.6748 245.792 33.3628 245.264C34.0668 244.72 34.4188 243.984 34.4188 243.056C34.4188 242.048 34.0348 241.288 33.2668 240.776C32.4988 240.248 31.1868 239.984 29.3308 239.984H25.5148L26.4028 231.2H35.8828V233.288H28.4188L27.9628 237.896H29.8348ZM45.6801 248.192C44.3521 248.192 43.1681 247.856 42.1281 247.184C41.1041 246.496 40.2961 245.504 39.7041 244.208C39.1121 242.912 38.8161 241.376 38.8161 239.6C38.8161 237.824 39.1121 236.288 39.7041 234.992C40.2961 233.696 41.1041 232.712 42.1281 232.04C43.1681 231.352 44.3521 231.008 45.6801 231.008C46.9921 231.008 48.1601 231.352 49.1841 232.04C50.2241 232.712 51.0401 233.696 51.6321 234.992C52.2241 236.288 52.5201 237.824 52.5201 239.6C52.5201 241.376 52.2241 242.912 51.6321 244.208C51.0401 245.504 50.2241 246.496 49.1841 247.184C48.1601 247.856 46.9921 248.192 45.6801 248.192ZM45.6801 246.056C47.0241 246.056 48.0961 245.504 48.8961 244.4C49.7121 243.296 50.1201 241.696 50.1201 239.6C50.1201 237.504 49.7121 235.904 48.8961 234.8C48.0961 233.696 47.0241 233.144 45.6801 233.144C44.3201 233.144 43.2321 233.696 42.4161 234.8C41.6161 235.904 41.2161 237.504 41.2161 239.6C41.2161 241.696 41.6161 243.296 42.4161 244.4C43.2321 245.504 44.3201 246.056 45.6801 246.056ZM68.1332 248.192C66.8052 248.192 65.6212 247.856 64.5812 247.184C63.5572 246.496 62.7492 245.504 62.1572 244.208C61.5652 242.912 61.2692 241.376 61.2692 239.6C61.2692 237.824 61.5652 236.288 62.1572 234.992C62.7492 233.696 63.5572 232.712 64.5812 232.04C65.6212 231.352 66.8052 231.008 68.1332 231.008C69.4452 231.008 70.6132 231.352 71.6372 232.04C72.6772 232.712 73.4932 233.696 74.0852 234.992C74.6772 236.288 74.9732 237.824 74.9732 239.6C74.9732 241.376 74.6772 242.912 74.0852 244.208C73.4932 245.504 72.6772 246.496 71.6372 247.184C70.6132 247.856 69.4452 248.192 68.1332 248.192ZM68.1332 246.056C69.4772 246.056 70.5492 245.504 71.3492 244.4C72.1652 243.296 72.5732 241.696 72.5732 239.6C72.5732 237.504 72.1652 235.904 71.3492 234.8C70.5492 233.696 69.4772 233.144 68.1332 233.144C66.7732 233.144 65.6852 233.696 64.8692 234.8C64.0692 235.904 63.6692 237.504 63.6692 239.6C63.6692 241.696 64.0692 243.296 64.8692 244.4C65.6852 245.504 66.7732 246.056 68.1332 246.056ZM84.141 248.192C82.813 248.192 81.629 247.856 80.589 247.184C79.565 246.496 78.757 245.504 78.165 244.208C77.573 242.912 77.277 241.376 77.277 239.6C77.277 237.824 77.573 236.288 78.165 234.992C78.757 233.696 79.565 232.712 80.589 232.04C81.629 231.352 82.813 231.008 84.141 231.008C85.453 231.008 86.621 231.352 87.645 232.04C88.685 232.712 89.501 233.696 90.093 234.992C90.685 236.288 90.981 237.824 90.981 239.6C90.981 241.376 90.685 242.912 90.093 244.208C89.501 245.504 88.685 246.496 87.645 247.184C86.621 247.856 85.453 248.192 84.141 248.192ZM84.141 246.056C85.485 246.056 86.557 245.504 87.357 244.4C88.173 243.296 88.581 241.696 88.581 239.6C88.581 237.504 88.173 235.904 87.357 234.8C86.557 233.696 85.485 233.144 84.141 233.144C82.781 233.144 81.693 233.696 80.877 234.8C80.077 235.904 79.677 237.504 79.677 239.6C79.677 241.696 80.077 243.296 80.877 244.4C81.693 245.504 82.781 246.056 84.141 246.056ZM100.149 248.192C98.8208 248.192 97.6368 247.856 96.5968 247.184C95.5728 246.496 94.7648 245.504 94.1728 244.208C93.5808 242.912 93.2848 241.376 93.2848 239.6C93.2848 237.824 93.5808 236.288 94.1728 234.992C94.7648 233.696 95.5728 232.712 96.5968 232.04C97.6368 231.352 98.8208 231.008 100.149 231.008C101.461 231.008 102.629 231.352 103.653 232.04C104.693 232.712 105.509 233.696 106.101 234.992C106.693 236.288 106.989 237.824 106.989 239.6C106.989 241.376 106.693 242.912 106.101 244.208C105.509 245.504 104.693 246.496 103.653 247.184C102.629 247.856 101.461 248.192 100.149 248.192ZM100.149 246.056C101.493 246.056 102.565 245.504 103.365 244.4C104.181 243.296 104.589 241.696 104.589 239.6C104.589 237.504 104.181 235.904 103.365 234.8C102.565 233.696 101.493 233.144 100.149 233.144C98.7888 233.144 97.7008 233.696 96.8848 234.8C96.0848 235.904 95.6848 237.504 95.6848 239.6C95.6848 241.696 96.0848 243.296 96.8848 244.4C97.7008 245.504 98.7888 246.056 100.149 246.056ZM116.41 231.2H130.282V232.592H116.41V231.2ZM122.146 235.856H116.41V234.464H130.282V235.856H124.522V248H122.146V235.856Z" fill="white"/>
<path d="M18.71 206.2V216H17.324V207.418H15.112V206.2H18.71ZM23.6536 210.106C25.0536 210.106 26.0803 210.372 26.7336 210.904C27.3963 211.427 27.7276 212.145 27.7276 213.06C27.7276 213.639 27.5876 214.161 27.3076 214.628C27.037 215.085 26.6216 215.449 26.0616 215.72C25.511 215.981 24.8296 216.112 24.0176 216.112C23.327 216.112 22.6596 216.009 22.0156 215.804C21.3716 215.589 20.8396 215.295 20.4196 214.922L21.0636 213.816C21.3996 214.133 21.829 214.39 22.3516 214.586C22.8743 214.773 23.425 214.866 24.0036 214.866C24.741 214.866 25.3103 214.712 25.7116 214.404C26.1223 214.087 26.3276 213.657 26.3276 213.116C26.3276 212.528 26.1036 212.085 25.6556 211.786C25.2076 211.478 24.4423 211.324 23.3596 211.324H21.1336L21.6516 206.2H27.1816V207.418H22.8276L22.5616 210.106H23.6536ZM32.8967 216.112C32.122 216.112 31.4314 215.916 30.8247 215.524C30.2274 215.123 29.756 214.544 29.4107 213.788C29.0654 213.032 28.8927 212.136 28.8927 211.1C28.8927 210.064 29.0654 209.168 29.4107 208.412C29.756 207.656 30.2274 207.082 30.8247 206.69C31.4314 206.289 32.122 206.088 32.8967 206.088C33.662 206.088 34.3434 206.289 34.9407 206.69C35.5474 207.082 36.0234 207.656 36.3687 208.412C36.714 209.168 36.8867 210.064 36.8867 211.1C36.8867 212.136 36.714 213.032 36.3687 213.788C36.0234 214.544 35.5474 215.123 34.9407 215.524C34.3434 215.916 33.662 216.112 32.8967 216.112ZM32.8967 214.866C33.6807 214.866 34.306 214.544 34.7727 213.9C35.2487 213.256 35.4867 212.323 35.4867 211.1C35.4867 209.877 35.2487 208.944 34.7727 208.3C34.306 207.656 33.6807 207.334 32.8967 207.334C32.1034 207.334 31.4687 207.656 30.9927 208.3C30.526 208.944 30.2927 209.877 30.2927 211.1C30.2927 212.323 30.526 213.256 30.9927 213.9C31.4687 214.544 32.1034 214.866 32.8967 214.866ZM45.9944 216.112C45.2197 216.112 44.529 215.916 43.9224 215.524C43.325 215.123 42.8537 214.544 42.5084 213.788C42.163 213.032 41.9904 212.136 41.9904 211.1C41.9904 210.064 42.163 209.168 42.5084 208.412C42.8537 207.656 43.325 207.082 43.9224 206.69C44.529 206.289 45.2197 206.088 45.9944 206.088C46.7597 206.088 47.441 206.289 48.0384 206.69C48.645 207.082 49.121 207.656 49.4664 208.412C49.8117 209.168 49.9844 210.064 49.9844 211.1C49.9844 212.136 49.8117 213.032 49.4664 213.788C49.121 214.544 48.645 215.123 48.0384 215.524C47.441 215.916 46.7597 216.112 45.9944 216.112ZM45.9944 214.866C46.7784 214.866 47.4037 214.544 47.8704 213.9C48.3464 213.256 48.5844 212.323 48.5844 211.1C48.5844 209.877 48.3464 208.944 47.8704 208.3C47.4037 207.656 46.7784 207.334 45.9944 207.334C45.201 207.334 44.5664 207.656 44.0904 208.3C43.6237 208.944 43.3904 209.877 43.3904 211.1C43.3904 212.323 43.6237 213.256 44.0904 213.9C44.5664 214.544 45.201 214.866 45.9944 214.866ZM55.3323 216.112C54.5576 216.112 53.8669 215.916 53.2603 215.524C52.6629 215.123 52.1916 214.544 51.8463 213.788C51.5009 213.032 51.3283 212.136 51.3283 211.1C51.3283 210.064 51.5009 209.168 51.8463 208.412C52.1916 207.656 52.6629 207.082 53.2603 206.69C53.8669 206.289 54.5576 206.088 55.3323 206.088C56.0976 206.088 56.7789 206.289 57.3763 206.69C57.9829 207.082 58.4589 207.656 58.8043 208.412C59.1496 209.168 59.3223 210.064 59.3223 211.1C59.3223 212.136 59.1496 213.032 58.8043 213.788C58.4589 214.544 57.9829 215.123 57.3763 215.524C56.7789 215.916 56.0976 216.112 55.3323 216.112ZM55.3323 214.866C56.1163 214.866 56.7416 214.544 57.2083 213.9C57.6843 213.256 57.9223 212.323 57.9223 211.1C57.9223 209.877 57.6843 208.944 57.2083 208.3C56.7416 207.656 56.1163 207.334 55.3323 207.334C54.5389 207.334 53.9043 207.656 53.4283 208.3C52.9616 208.944 52.7283 209.877 52.7283 211.1C52.7283 212.323 52.9616 213.256 53.4283 213.9C53.9043 214.544 54.5389 214.866 55.3323 214.866ZM64.6701 216.112C63.8955 216.112 63.2048 215.916 62.5981 215.524C62.0008 215.123 61.5295 214.544 61.1841 213.788C60.8388 213.032 60.6661 212.136 60.6661 211.1C60.6661 210.064 60.8388 209.168 61.1841 208.412C61.5295 207.656 62.0008 207.082 62.5981 206.69C63.2048 206.289 63.8955 206.088 64.6701 206.088C65.4355 206.088 66.1168 206.289 66.7141 206.69C67.3208 207.082 67.7968 207.656 68.1421 208.412C68.4875 209.168 68.6601 210.064 68.6601 211.1C68.6601 212.136 68.4875 213.032 68.1421 213.788C67.7968 214.544 67.3208 215.123 66.7141 215.524C66.1168 215.916 65.4355 216.112 64.6701 216.112ZM64.6701 214.866C65.4541 214.866 66.0795 214.544 66.5461 213.9C67.0221 213.256 67.2601 212.323 67.2601 211.1C67.2601 209.877 67.0221 208.944 66.5461 208.3C66.0795 207.656 65.4541 207.334 64.6701 207.334C63.8768 207.334 63.2421 207.656 62.7661 208.3C62.2995 208.944 62.0661 209.877 62.0661 211.1C62.0661 212.323 62.2995 213.256 62.7661 213.9C63.2421 214.544 63.8768 214.866 64.6701 214.866ZM74.1558 206.2H82.2478V207.012H74.1558V206.2ZM77.5018 208.916H74.1558V208.104H82.2478V208.916H78.8878V216H77.5018V208.916Z" fill="white"/>
<path d="M15 211.548H83.1858V212.248H15V211.548Z" fill="white"/>
<path d="M24.168 105.584V114H23.032V106.592H17.752V114H16.616V105.584H24.168ZM31.7333 105.52C32.5226 105.52 33.2373 105.701 33.8773 106.064C34.5173 106.416 35.0186 106.917 35.3813 107.568C35.7439 108.219 35.9253 108.96 35.9253 109.792C35.9253 110.635 35.7439 111.381 35.3813 112.032C35.0186 112.683 34.5173 113.189 33.8773 113.552C33.2479 113.904 32.5333 114.08 31.7333 114.08C31.0506 114.08 30.4319 113.941 29.8773 113.664C29.3333 113.376 28.8853 112.96 28.5333 112.416V117.104H27.3973V105.584H28.4853V107.248C28.8266 106.693 29.2746 106.267 29.8293 105.968C30.3946 105.669 31.0293 105.52 31.7333 105.52ZM31.6533 113.072C32.2399 113.072 32.7733 112.939 33.2533 112.672C33.7333 112.395 34.1066 112.005 34.3733 111.504C34.6506 111.003 34.7893 110.432 34.7893 109.792C34.7893 109.152 34.6506 108.587 34.3733 108.096C34.1066 107.595 33.7333 107.205 33.2533 106.928C32.7733 106.651 32.2399 106.512 31.6533 106.512C31.0559 106.512 30.5173 106.651 30.0373 106.928C29.5679 107.205 29.1946 107.595 28.9173 108.096C28.6506 108.587 28.5173 109.152 28.5173 109.792C28.5173 110.432 28.6506 111.003 28.9173 111.504C29.1946 112.005 29.5679 112.395 30.0373 112.672C30.5173 112.939 31.0559 113.072 31.6533 113.072ZM41.838 114.08C41.0273 114.08 40.2967 113.899 39.646 113.536C38.9953 113.163 38.4833 112.651 38.11 112C37.7367 111.349 37.55 110.613 37.55 109.792C37.55 108.971 37.7367 108.235 38.11 107.584C38.4833 106.933 38.9953 106.427 39.646 106.064C40.2967 105.701 41.0273 105.52 41.838 105.52C42.6487 105.52 43.3793 105.701 44.03 106.064C44.6807 106.427 45.1873 106.933 45.55 107.584C45.9233 108.235 46.11 108.971 46.11 109.792C46.11 110.613 45.9233 111.349 45.55 112C45.1873 112.651 44.6807 113.163 44.03 113.536C43.3793 113.899 42.6487 114.08 41.838 114.08ZM41.838 113.072C42.4353 113.072 42.9687 112.939 43.438 112.672C43.918 112.395 44.2913 112.005 44.558 111.504C44.8247 111.003 44.958 110.432 44.958 109.792C44.958 109.152 44.8247 108.581 44.558 108.08C44.2913 107.579 43.918 107.195 43.438 106.928C42.9687 106.651 42.4353 106.512 41.838 106.512C41.2407 106.512 40.702 106.651 40.222 106.928C39.7527 107.195 39.3793 107.579 39.102 108.08C38.8353 108.581 38.702 109.152 38.702 109.792C38.702 110.432 38.8353 111.003 39.102 111.504C39.3793 112.005 39.7527 112.395 40.222 112.672C40.702 112.939 41.2407 113.072 41.838 113.072ZM56.699 113.008V116.032H55.627V114H48.091V116.032H47.019V113.008H47.499C48.0643 112.976 48.4483 112.56 48.651 111.76C48.8537 110.96 48.9923 109.84 49.067 108.4L49.179 105.584H55.387V113.008H56.699ZM50.107 108.464C50.0537 109.659 49.9523 110.645 49.803 111.424C49.6537 112.192 49.387 112.72 49.003 113.008H54.251V106.592H50.203L50.107 108.464ZM61.8089 105.52C62.9075 105.52 63.7502 105.797 64.3369 106.352C64.9235 106.896 65.2169 107.707 65.2169 108.784V114H64.1289V112.688C63.8729 113.125 63.4942 113.467 62.9929 113.712C62.5022 113.957 61.9155 114.08 61.2329 114.08C60.2942 114.08 59.5475 113.856 58.9929 113.408C58.4382 112.96 58.1609 112.368 58.1609 111.632C58.1609 110.917 58.4169 110.341 58.9289 109.904C59.4515 109.467 60.2782 109.248 61.4089 109.248H64.0809V108.736C64.0809 108.011 63.8782 107.461 63.4729 107.088C63.0675 106.704 62.4755 106.512 61.6969 106.512C61.1635 106.512 60.6515 106.603 60.1609 106.784C59.6702 106.955 59.2489 107.195 58.8969 107.504L58.3849 106.656C58.8115 106.293 59.3235 106.016 59.9209 105.824C60.5182 105.621 61.1475 105.52 61.8089 105.52ZM61.4089 113.184C62.0489 113.184 62.5982 113.04 63.0569 112.752C63.5155 112.453 63.8569 112.027 64.0809 111.472V110.096H61.4409C60.0009 110.096 59.2809 110.597 59.2809 111.6C59.2809 112.091 59.4675 112.48 59.8409 112.768C60.2142 113.045 60.7369 113.184 61.4089 113.184ZM75.473 105.52C76.2623 105.52 76.9717 105.701 77.601 106.064C78.241 106.427 78.7423 106.933 79.105 107.584C79.4677 108.235 79.649 108.971 79.649 109.792C79.649 110.613 79.4677 111.349 79.105 112C78.7423 112.651 78.241 113.163 77.601 113.536C76.9717 113.899 76.2623 114.08 75.473 114.08C74.7263 114.08 74.049 113.92 73.441 113.6C72.833 113.269 72.337 112.816 71.953 112.24C71.5797 111.664 71.361 111.003 71.297 110.256H69.377V114H68.241V105.584H69.377V109.216H71.313C71.3983 108.491 71.6277 107.851 72.001 107.296C72.385 106.731 72.8757 106.293 73.473 105.984C74.0703 105.675 74.737 105.52 75.473 105.52ZM75.473 113.088C76.049 113.088 76.5663 112.949 77.025 112.672C77.4943 112.395 77.8623 112.005 78.129 111.504C78.3957 111.003 78.529 110.432 78.529 109.792C78.529 109.152 78.3957 108.581 78.129 108.08C77.8623 107.579 77.4943 107.195 77.025 106.928C76.5663 106.651 76.049 106.512 75.473 106.512C74.897 106.512 74.3743 106.651 73.905 106.928C73.4463 107.195 73.0837 107.579 72.817 108.08C72.5503 108.581 72.417 109.152 72.417 109.792C72.417 110.432 72.5503 111.003 72.817 111.504C73.0837 112.005 73.4463 112.395 73.905 112.672C74.3743 112.949 74.897 113.088 75.473 113.088ZM93.7008 105.584V114H82.0848V105.584H83.2208V113.008H87.3488V105.584H88.4848V113.008H92.5648V105.584H93.7008ZM94.9968 113.008V115.84H93.9248V114H92.5008V113.008H94.9968ZM99.8401 105.52C100.939 105.52 101.781 105.797 102.368 106.352C102.955 106.896 103.248 107.707 103.248 108.784V114H102.16V112.688C101.904 113.125 101.525 113.467 101.024 113.712C100.533 113.957 99.9468 114.08 99.2641 114.08C98.3255 114.08 97.5788 113.856 97.0241 113.408C96.4695 112.96 96.1921 112.368 96.1921 111.632C96.1921 110.917 96.4481 110.341 96.9601 109.904C97.4828 109.467 98.3095 109.248 99.4401 109.248H102.112V108.736C102.112 108.011 101.909 107.461 101.504 107.088C101.099 106.704 100.507 106.512 99.7281 106.512C99.1948 106.512 98.6828 106.603 98.1921 106.784C97.7015 106.955 97.2801 107.195 96.9281 107.504L96.4161 106.656C96.8428 106.293 97.3548 106.016 97.9521 105.824C98.5495 105.621 99.1788 105.52 99.8401 105.52ZM99.4401 113.184C100.08 113.184 100.629 113.04 101.088 112.752C101.547 112.453 101.888 112.027 102.112 111.472V110.096H99.4721C98.0321 110.096 97.3121 110.597 97.3121 111.6C97.3121 112.091 97.4988 112.48 97.8721 112.768C98.2455 113.045 98.7681 113.184 99.4401 113.184ZM112.736 105.584V114H111.696V111.216H109.056H108.736L106.784 114H105.552L107.648 111.056C106.998 110.875 106.496 110.565 106.144 110.128C105.792 109.691 105.616 109.136 105.616 108.464C105.616 107.525 105.936 106.811 106.576 106.32C107.216 105.829 108.091 105.584 109.2 105.584H112.736ZM106.768 108.496C106.768 109.744 107.563 110.368 109.152 110.368H111.696V106.592H109.232C107.59 106.592 106.768 107.227 106.768 108.496ZM24.168 125.584V134H23.032V126.592H17.752V134H16.616V125.584H24.168ZM30.8693 134.08C30.0586 134.08 29.3279 133.899 28.6773 133.536C28.0266 133.163 27.5146 132.651 27.1413 132C26.7679 131.349 26.5813 130.613 26.5813 129.792C26.5813 128.971 26.7679 128.235 27.1413 127.584C27.5146 126.933 28.0266 126.427 28.6773 126.064C29.3279 125.701 30.0586 125.52 30.8693 125.52C31.6799 125.52 32.4106 125.701 33.0613 126.064C33.7119 126.427 34.2186 126.933 34.5813 127.584C34.9546 128.235 35.1413 128.971 35.1413 129.792C35.1413 130.613 34.9546 131.349 34.5813 132C34.2186 132.651 33.7119 133.163 33.0613 133.536C32.4106 133.899 31.6799 134.08 30.8693 134.08ZM30.8693 133.072C31.4666 133.072 31.9999 132.939 32.4693 132.672C32.9493 132.395 33.3226 132.005 33.5893 131.504C33.8559 131.003 33.9893 130.432 33.9893 129.792C33.9893 129.152 33.8559 128.581 33.5893 128.08C33.3226 127.579 32.9493 127.195 32.4693 126.928C31.9999 126.651 31.4666 126.512 30.8693 126.512C30.2719 126.512 29.7333 126.651 29.2533 126.928C28.7839 127.195 28.4106 127.579 28.1332 128.08C27.8666 128.581 27.7333 129.152 27.7333 129.792C27.7333 130.432 27.8666 131.003 28.1332 131.504C28.4106 132.005 28.7839 132.395 29.2533 132.672C29.7333 132.939 30.2719 133.072 30.8693 133.072ZM41.0891 134.08C40.2571 134.08 39.5105 133.899 38.8491 133.536C38.1985 133.173 37.6865 132.667 37.3131 132.016C36.9398 131.355 36.7531 130.613 36.7531 129.792C36.7531 128.971 36.9398 128.235 37.3131 127.584C37.6865 126.933 38.1985 126.427 38.8491 126.064C39.5105 125.701 40.2571 125.52 41.0891 125.52C41.8145 125.52 42.4598 125.664 43.0251 125.952C43.6011 126.229 44.0545 126.64 44.3851 127.184L43.5371 127.76C43.2598 127.344 42.9078 127.035 42.4811 126.832C42.0545 126.619 41.5905 126.512 41.0891 126.512C40.4811 126.512 39.9318 126.651 39.4411 126.928C38.9611 127.195 38.5825 127.579 38.3051 128.08C38.0385 128.581 37.9051 129.152 37.9051 129.792C37.9051 130.443 38.0385 131.019 38.3051 131.52C38.5825 132.011 38.9611 132.395 39.4411 132.672C39.9318 132.939 40.4811 133.072 41.0891 133.072C41.5905 133.072 42.0545 132.971 42.4811 132.768C42.9078 132.565 43.2598 132.256 43.5371 131.84L44.3851 132.416C44.0545 132.96 43.6011 133.376 43.0251 133.664C42.4491 133.941 41.8038 134.08 41.0891 134.08ZM49.4808 125.52C50.5794 125.52 51.4221 125.797 52.0088 126.352C52.5954 126.896 52.8888 127.707 52.8888 128.784V134H51.8008V132.688C51.5448 133.125 51.1661 133.467 50.6648 133.712C50.1741 133.957 49.5874 134.08 48.9048 134.08C47.9661 134.08 47.2194 133.856 46.6648 133.408C46.1101 132.96 45.8328 132.368 45.8328 131.632C45.8328 130.917 46.0888 130.341 46.6008 129.904C47.1234 129.467 47.9501 129.248 49.0807 129.248H51.7528V128.736C51.7528 128.011 51.5501 127.461 51.1448 127.088C50.7394 126.704 50.1474 126.512 49.3688 126.512C48.8354 126.512 48.3234 126.603 47.8328 126.784C47.3421 126.955 46.9208 127.195 46.5688 127.504L46.0568 126.656C46.4834 126.293 46.9954 126.016 47.5928 125.824C48.1901 125.621 48.8194 125.52 49.4808 125.52ZM49.0807 133.184C49.7208 133.184 50.2701 133.04 50.7288 132.752C51.1874 132.453 51.5288 132.027 51.7528 131.472V130.096H49.1128C47.6728 130.096 46.9528 130.597 46.9528 131.6C46.9528 132.091 47.1394 132.48 47.5128 132.768C47.8861 133.045 48.4088 133.184 49.0807 133.184ZM64.1209 133.008V136.032H63.0489V134H55.5129V136.032H54.4409V133.008H54.9209C55.4862 132.976 55.8702 132.56 56.0729 131.76C56.2755 130.96 56.4142 129.84 56.4889 128.4L56.6009 125.584H62.8089V133.008H64.1209ZM57.5289 128.464C57.4755 129.659 57.3742 130.645 57.2249 131.424C57.0755 132.192 56.8089 132.72 56.4249 133.008H61.6729V126.592H57.6249L57.5289 128.464ZM69.8068 134.08C68.9961 134.08 68.2654 133.899 67.6148 133.536C66.9641 133.163 66.4521 132.651 66.0788 132C65.7054 131.349 65.5188 130.613 65.5188 129.792C65.5188 128.971 65.7054 128.235 66.0788 127.584C66.4521 126.933 66.9641 126.427 67.6148 126.064C68.2654 125.701 68.9961 125.52 69.8068 125.52C70.6174 125.52 71.3481 125.701 71.9988 126.064C72.6494 126.427 73.1561 126.933 73.5188 127.584C73.8921 128.235 74.0788 128.971 74.0788 129.792C74.0788 130.613 73.8921 131.349 73.5188 132C73.1561 132.651 72.6494 133.163 71.9988 133.536C71.3481 133.899 70.6174 134.08 69.8068 134.08ZM69.8068 133.072C70.4041 133.072 70.9374 132.939 71.4068 132.672C71.8868 132.395 72.2601 132.005 72.5268 131.504C72.7934 131.003 72.9268 130.432 72.9268 129.792C72.9268 129.152 72.7934 128.581 72.5268 128.08C72.2601 127.579 71.8868 127.195 71.4068 126.928C70.9374 126.651 70.4041 126.512 69.8068 126.512C69.2094 126.512 68.6708 126.651 68.1908 126.928C67.7214 127.195 67.3481 127.579 67.0707 128.08C66.8041 128.581 66.6708 129.152 66.6708 129.792C66.6708 130.432 66.8041 131.003 67.0707 131.504C67.3481 132.005 67.7214 132.395 68.1908 132.672C68.6708 132.939 69.2094 133.072 69.8068 133.072ZM82.8586 125.584V134H81.7226V130.496C80.752 130.923 79.7973 131.136 78.8586 131.136C77.8453 131.136 77.056 130.907 76.4906 130.448C75.9253 129.979 75.6426 129.28 75.6426 128.352V125.584H76.7786V128.288C76.7786 128.917 76.9813 129.397 77.3866 129.728C77.792 130.048 78.352 130.208 79.0666 130.208C79.856 130.208 80.7413 130 81.7226 129.584V125.584H82.8586ZM86.0848 125.584H87.2208V129.312H92.5168V125.584H93.6528V134H92.5168V130.288H87.2208V134H86.0848V125.584ZM99.7776 125.52C100.876 125.52 101.719 125.797 102.306 126.352C102.892 126.896 103.186 127.707 103.186 128.784V134H102.098V132.688C101.842 133.125 101.463 133.467 100.962 133.712C100.471 133.957 99.8843 134.08 99.2016 134.08C98.263 134.08 97.5163 133.856 96.9616 133.408C96.407 132.96 96.1296 132.368 96.1296 131.632C96.1296 130.917 96.3856 130.341 96.8976 129.904C97.4203 129.467 98.247 129.248 99.3776 129.248H102.05V128.736C102.05 128.011 101.847 127.461 101.442 127.088C101.036 126.704 100.444 126.512 99.6656 126.512C99.1323 126.512 98.6203 126.603 98.1296 126.784C97.639 126.955 97.2176 127.195 96.8656 127.504L96.3536 126.656C96.7803 126.293 97.2923 126.016 97.8896 125.824C98.487 125.621 99.1163 125.52 99.7776 125.52ZM99.3776 133.184C100.018 133.184 100.567 133.04 101.026 132.752C101.484 132.453 101.826 132.027 102.05 131.472V130.096H99.4096C97.9696 130.096 97.2496 130.597 97.2496 131.6C97.2496 132.091 97.4363 132.48 97.8096 132.768C98.183 133.045 98.7056 133.184 99.3776 133.184ZM112.674 125.584V134H111.634V131.216H108.994H108.674L106.722 134H105.49L107.586 131.056C106.935 130.875 106.434 130.565 106.082 130.128C105.73 129.691 105.554 129.136 105.554 128.464C105.554 127.525 105.874 126.811 106.514 126.32C107.154 125.829 108.028 125.584 109.138 125.584H112.674ZM106.706 128.496C106.706 129.744 107.5 130.368 109.09 130.368H111.634V126.592H109.17C107.527 126.592 106.706 127.227 106.706 128.496ZM20.136 154.08C19.304 154.08 18.5573 153.899 17.896 153.536C17.2453 153.173 16.7333 152.667 16.36 152.016C15.9867 151.355 15.8 150.613 15.8 149.792C15.8 148.971 15.9867 148.235 16.36 147.584C16.7333 146.933 17.2453 146.427 17.896 146.064C18.5573 145.701 19.304 145.52 20.136 145.52C20.8613 145.52 21.5067 145.664 22.072 145.952C22.648 146.229 23.1013 146.64 23.432 147.184L22.584 147.76C22.3067 147.344 21.9547 147.035 21.528 146.832C21.1013 146.619 20.6373 146.512 20.136 146.512C19.528 146.512 18.9787 146.651 18.488 146.928C18.008 147.195 17.6293 147.579 17.352 148.08C17.0853 148.581 16.952 149.152 16.952 149.792C16.952 150.443 17.0853 151.019 17.352 151.52C17.6293 152.011 18.008 152.395 18.488 152.672C18.9787 152.939 19.528 153.072 20.136 153.072C20.6373 153.072 21.1013 152.971 21.528 152.768C21.9547 152.565 22.3067 152.256 22.584 151.84L23.432 152.416C23.1013 152.96 22.648 153.376 22.072 153.664C21.496 153.941 20.8507 154.08 20.136 154.08ZM31.3954 146.592H28.2114V154H27.0754V146.592H23.8914V145.584H31.3954V146.592ZM37.3739 145.52C38.1632 145.52 38.8779 145.701 39.5179 146.064C40.1579 146.416 40.6592 146.917 41.0219 147.568C41.3845 148.219 41.5659 148.96 41.5659 149.792C41.5659 150.635 41.3845 151.381 41.0219 152.032C40.6592 152.683 40.1579 153.189 39.5179 153.552C38.8885 153.904 38.1739 154.08 37.3739 154.08C36.6912 154.08 36.0725 153.941 35.5179 153.664C34.9739 153.376 34.5259 152.96 34.1739 152.416V157.104H33.0379V145.584H34.1259V147.248C34.4672 146.693 34.9152 146.267 35.4699 145.968C36.0352 145.669 36.6699 145.52 37.3739 145.52ZM37.2939 153.072C37.8805 153.072 38.4139 152.939 38.8939 152.672C39.3739 152.395 39.7472 152.005 40.0139 151.504C40.2912 151.003 40.4299 150.432 40.4299 149.792C40.4299 149.152 40.2912 148.587 40.0139 148.096C39.7472 147.595 39.3739 147.205 38.8939 146.928C38.4139 146.651 37.8805 146.512 37.2939 146.512C36.6965 146.512 36.1579 146.651 35.6779 146.928C35.2085 147.205 34.8352 147.595 34.5579 148.096C34.2912 148.587 34.1579 149.152 34.1579 149.792C34.1579 150.432 34.2912 151.003 34.5579 151.504C34.8352 152.005 35.2085 152.395 35.6779 152.672C36.1579 152.939 36.6965 153.072 37.2939 153.072ZM46.8558 145.52C47.9544 145.52 48.7971 145.797 49.3838 146.352C49.9704 146.896 50.2638 147.707 50.2638 148.784V154H49.1758V152.688C48.9198 153.125 48.5411 153.467 48.0398 153.712C47.5491 153.957 46.9624 154.08 46.2798 154.08C45.3411 154.08 44.5944 153.856 44.0398 153.408C43.4851 152.96 43.2078 152.368 43.2078 151.632C43.2078 150.917 43.4638 150.341 43.9758 149.904C44.4984 149.467 45.3251 149.248 46.4557 149.248H49.1278V148.736C49.1278 148.011 48.9251 147.461 48.5198 147.088C48.1144 146.704 47.5224 146.512 46.7438 146.512C46.2104 146.512 45.6984 146.603 45.2078 146.784C44.7171 146.955 44.2958 147.195 43.9438 147.504L43.4318 146.656C43.8584 146.293 44.3704 146.016 44.9678 145.824C45.5651 145.621 46.1944 145.52 46.8558 145.52ZM46.4557 153.184C47.0958 153.184 47.6451 153.04 48.1038 152.752C48.5624 152.453 48.9038 152.027 49.1278 151.472V150.096H46.4878C45.0478 150.096 44.3278 150.597 44.3278 151.6C44.3278 152.091 44.5144 152.48 44.8878 152.768C45.2611 153.045 45.7838 153.184 46.4557 153.184ZM53.2879 145.584H54.4239V149.312H59.7199V145.584H60.8559V154H59.7199V150.288H54.4239V154H53.2879V145.584ZM64.0848 145.584H65.2208V152.272L70.8368 145.584H71.8448V154H70.7088V147.312L65.1088 154H64.0848V145.584ZM83.8684 153.008V156.112H82.7964V154H75.1004V145.584H76.2364V153.008H81.3724V145.584H82.5084V153.008H83.8684ZM88.9339 145.52C90.0325 145.52 90.8752 145.797 91.4619 146.352C92.0485 146.896 92.3419 147.707 92.3419 148.784V154H91.2539V152.688C90.9979 153.125 90.6192 153.467 90.1179 153.712C89.6272 153.957 89.0405 154.08 88.3579 154.08C87.4192 154.08 86.6725 153.856 86.1179 153.408C85.5632 152.96 85.2859 152.368 85.2859 151.632C85.2859 150.917 85.5419 150.341 86.0539 149.904C86.5765 149.467 87.4032 149.248 88.5339 149.248H91.2059V148.736C91.2059 148.011 91.0032 147.461 90.5979 147.088C90.1925 146.704 89.6005 146.512 88.8219 146.512C88.2885 146.512 87.7765 146.603 87.2859 146.784C86.7952 146.955 86.3739 147.195 86.0219 147.504L85.5099 146.656C85.9365 146.293 86.4485 146.016 87.0459 145.824C87.6432 145.621 88.2725 145.52 88.9339 145.52ZM88.5339 153.184C89.1739 153.184 89.7232 153.04 90.1819 152.752C90.6405 152.453 90.9819 152.027 91.2059 151.472V150.096H88.5659C87.1259 150.096 86.4059 150.597 86.4059 151.6C86.4059 152.091 86.5925 152.48 86.9659 152.768C87.3392 153.045 87.8619 153.184 88.5339 153.184ZM95.446 154.08C95.2113 154.08 95.0087 153.995 94.838 153.824C94.678 153.653 94.598 153.445 94.598 153.2C94.598 152.955 94.678 152.752 94.838 152.592C95.0087 152.421 95.2113 152.336 95.446 152.336C95.6807 152.336 95.8833 152.421 96.054 152.592C96.2247 152.752 96.31 152.955 96.31 153.2C96.31 153.445 96.2247 153.653 96.054 153.824C95.8833 153.995 95.6807 154.08 95.446 154.08Z" fill="#E8E8E8"/>
</g>
<defs>
<clipPath id="clip0_16_55">
<rect width="194" height="284" fill="white"/>
</clipPath>
</defs>
</svg>
